<?xml version="1.0" standalone="no"?><!DOCTYPE svg PUBLIC "-//W3C//DTD SVG 1.1//EN" "http://www.w3.org/Graphics/SVG/1.1/DTD/svg11.dtd"><svg t="1599226876579" class="icon" viewBox="0 0 1472 1024" version="1.1" xmlns="http://www.w3.org/2000/svg" p-id="4557" xmlns:xlink="http://www.w3.org/1999/xlink" width="287.5" height="200"><defs><style type="text/css"></style></defs><path d="M1448.039551 535.471461c16.395506-9.526652 24.599011-21.998742 24.633528-34.482337L1472.719101 486.457528c0 0.36818-0.034517 0.73636-0.046022 1.104539 0.529258-13.012854-7.777798-26.140764-24.978697-36.070112L693.650697 16.153888c-33.216719-19.191371-86.901933-19.179865-119.88854 0L0.138067 349.494652 0 517.442157l874.484494 504.797483v-14.531595 14.531595l573.44-333.340764c16.384-9.526652 24.599011-21.998742 24.633528-34.482337l0.046023-14.52009c0 0.36818-0.034517 0.724854-0.046023 1.093034 0.529258-13.001348-7.789303-26.129258-24.990202-36.058607l-28.476404-16.453033 0.046022-36.20818 28.902113-16.798202z" fill="#820018" p-id="4558"></path><path d="M874.484494 1007.708045v14.531595L0 517.442157l0.046022-14.531595z" fill="#D07400" p-id="4559"></path><path d="M1447.56782 604.930876c33.228225 19.179865 33.400809 50.268045 0.391191 69.447911L874.484494 1007.708045 0.046022 502.910562 573.62409 169.592809c33.021124-19.179865 86.683326-19.179865 119.91155 0l754.03218 435.349573z" fill="#A50020" p-id="4560"></path><path d="M1394.549933 541.684494L864.117933 849.896989v138.907326l530.259415-308.212495c16.384-9.526652 24.599011-21.998742 24.633528-34.482337l0.18409-138.907326c-0.046022 12.495101-8.249528 24.967191-24.645033 34.493843z" fill="#E0E0E2" p-id="4561"></path><path d="M1447.694382 451.491955c33.216719 19.179865 33.377798 50.279551 0.391191 69.459416L874.484494 854.280629 0.149573 349.494652 573.750652 16.142382c32.998112-19.16836 86.683326-19.179865 119.900045 0l754.043685 435.349573z" fill="#C60024" p-id="4562"></path><path d="M0.149573 349.494652L0 517.442157l874.484494 504.797483V854.280629z" fill="#A50020" p-id="4563"></path><path d="M1448.039551 535.471461c16.395506-9.526652 24.599011-21.998742 24.633528-34.482337L1472.719101 486.457528c-0.034517 12.495101-8.238022 24.967191-24.633528 34.493843L874.484494 854.280629v167.959011l573.44-333.340764c16.384-9.526652 24.599011-21.998742 24.633528-34.482337l0.046023-14.52009c-0.034517 12.483596-8.249528 24.955685-24.645034 34.482338L885.725483 1001.172854V862.277034l562.314068-326.805573z" fill="#820018" p-id="4564"></path><path d="M1000.758652 841.44036l-62.061304 35.84 0.379686 134.06346 30.950112-44.848899 31.122697 9.020405-0.379686-134.074966" fill="#005ECF" p-id="4565"></path><path d="M565.754247 498.411865l-31.134202-33.308764 56.987326 18.282427-25.853124 15.026337m134.615731-15.394517L507.857978 428.986966l-35.667416 20.733124 93.701753 111.443416 39.866966-23.172315-19.617079-21.078292 37.864989-22.010247 36.668405 11.171955 39.682876-23.057259M773.246562 396.046382l-34.286742-19.801169-62.705618 36.438293 34.286742 19.789663 62.705618-36.426787M985.088 317.555056l-34.286742-19.789663-63.718112 37.025079-17.120359-82.334202-29.247281-16.890248-108.62454 63.119821 34.286742 19.801168 63.522517-36.921528 13.162427 84.681348 29.224269 16.867236 112.812585-65.559011" fill="#FFFFFF" p-id="4566"></path></svg>